<svg fill="#fe3e57" height="48px" width="48px" version="1.1" id="Layer_1"
  xmlns="http://www.w3.org/2000/svg" xmlns:xlink="http://www.w3.org/1999/xlink"
  viewBox="0 0 512 512" xml:space="preserve">

<g id="SVGRepo_bgCarrier" stroke-width="0"/>

<g id="SVGRepo_tracerCarrier" stroke-linecap="round" stroke-linejoin="round"/>

<g id="SVGRepo_iconCarrier"> <g> <g> <path d="M309.445,189.712c-27.401,0-36.959,33.02-37.058,33.352c-2.027,7.231-8.611,12.229-16.12,12.229 c-7.488,0-14.049-4.964-16.099-12.153c-0.458-1.548-10.148-33.428-37.08-33.428c-23.673,0-36.447,20.791-36.447,40.349 c0,24.861,20.676,42.731,63.706,77.603c8.109,6.578,16.774,13.603,25.919,21.243c9.144-7.641,17.809-14.671,25.929-21.248 c43.009-34.872,63.685-52.742,63.685-77.597C345.882,208.086,331.587,189.712,309.445,189.712z"/> </g> </g> <g> <g> <path d="M490.995,372.101c28.034-74.438,28-157.954-0.065-231.535l10.856-21.717c18.808-37.506-21.354-77.092-58.584-58.404 L420.685,71.96C313.086,41.987,197.269,42.157,91.993,72.043L68.68,60.386C31.829,41.924-8.699,81.089,10.303,119.019 l10.703,20.785c-28.023,74.431-28.012,157.952,0.055,231.545l-10.856,21.717c-18.839,37.654,21.526,76.999,58.606,58.387 l22.496-11.515c53.636,14.938,109.004,22.507,164.689,22.507c56.056,0,111.195-7.597,164.013-22.583l23.324,11.662 c36.909,18.455,77.338-20.785,58.366-58.644L490.995,372.101z M303.277,333.67c-11.052,8.964-23.161,18.779-36.11,29.875 c-6.291,5.384-15.534,5.368-21.798,0.006c-12.949-11.101-25.046-20.91-36.11-29.876c-44.175-35.815-76.099-61.69-76.099-103.614 c0-41.401,30.715-73.832,69.93-73.832c25.515,0,42.442,13.095,53.177,26.829c10.736-13.733,27.662-26.829,53.177-26.829 c39.101,0,69.919,32.146,69.919,73.832C379.365,271.98,347.452,297.855,303.277,333.67z"/> </g> </g> </g>

</svg>
